<svg xmlns="http://www.w3.org/2000/svg" xmlns:xlink="http://www.w3.org/1999/xlink" id="Layer_1" x="0" y="0" version="1.1" viewBox="0 0 64 64" xml:space="preserve" style="enable-background:new 0 0 64 64"><style type="text/css">.st0{fill-rule:evenodd;clip-rule:evenodd;fill:#fff}</style><path d="M44.3,11H19.7L9.5,26.9L13.6,53h7.3l-0.5-6h3.6l0.5,6h15.1l0.5-6h3.6l-0.5,6h7.3l4.1-26.1L44.3,11z M44.3,44	H19.7l-2-16.6l4.1-8.4h6.6l-0.4,3h8.2l-0.4-3h6.6l4.1,8.4L44.3,44z" class="st0"/><path d="M38.6,30.4c0.6,0,1,1.7,1,3.8c0,2.1-0.5,3.8-1,3.8c-0.6,0-1-1.7-1-3.8C37.6,32.1,38.1,30.4,38.6,30.4z" class="st0"/><path d="M25.7,30.7c0.6,0,1,1.7,1,3.8c0,2.1-0.5,3.8-1,3.8c-0.6,0-1-1.7-1-3.8C24.7,32.4,25.2,30.7,25.7,30.7z" class="st0"/></svg>